<?xml version="1.0" encoding="UTF-8"?>
<svg version="1.1" xmlns="http://www.w3.org/2000/svg" width="257" height="201">
<path d="M0 0 C84.81 0 169.62 0 257 0 C257 66.33 257 132.66 257 201 C172.19 201 87.38 201 0 201 C0 134.67 0 68.34 0 0 Z " fill="#FDFDFD" transform="translate(0,0)"/>
<path d="M0 0 C-4.625 4.875 -4.625 4.875 -8 6 C-9.84617291 5.02656337 -11.69104791 4.05053674 -13.52734375 3.05859375 C-18.12137755 1.09179571 -23.0722758 0.6241784 -28 0 C-28 1.65 -28 3.3 -28 5 C-28.99 5 -29.98 5 -31 5 C-31 3.35 -31 1.7 -31 0 C-42.27977279 1.88295094 -51.45483517 5.33647956 -58.9375 14.3125 C-63.61921956 20.90283425 -66.30111543 27.96282749 -67 36 C-65.35 36 -63.7 36 -62 36 C-62 37.32 -62 38.64 -62 40 C-63.65 40 -65.3 40 -67 40 C-65.38608561 47.7546618 -63.38959145 54.36919721 -59 61 C-58.319375 62.03125 -57.63875 63.0625 -56.9375 64.125 C-50.2715702 71.60588674 -40.71577281 75.06284869 -31 76 C-31 74.02 -31 72.04 -31 70 C-29.68 70 -28.36 70 -27 70 C-27 71.98 -27 73.96 -27 76 C-16.29904924 74.79950649 -6.88060383 71.04260993 0.5078125 62.96484375 C5.95885897 55.78715691 8.16072416 47.70291494 10 39 C8.02 39 6.04 39 4 39 C4 38.34 4 37.68 4 37 C5.98 37 7.96 37 10 37 C8.17307711 28.48549776 8.17307711 28.48549776 4.6875 20.5625 C3 17 3 17 3.625 14.1875 C4.72282777 12.44095583 5.85569741 10.71645389 7 9 C7.99 9.33 8.98 9.66 10 10 C10.80328735 11.73769653 10.80328735 11.73769653 11.62280273 13.51049805 C12.85151043 15.77856661 13.40868501 16.79631597 15.87796021 17.6468811 C18.28701304 17.87444527 20.61597601 17.8908127 23.03515625 17.83203125 C23.91022324 17.83957932 24.78529022 17.84712738 25.68687439 17.85490417 C28.4797971 17.87341788 31.26974477 17.84495992 34.0625 17.8125 C36.85808365 17.80649419 39.6532805 17.8102613 42.44883728 17.82365417 C44.18725923 17.82915206 45.92577838 17.82185408 47.66407776 17.80049133 C53.6695829 17.77972193 53.6695829 17.77972193 57 20 C56.4616953 27.61029586 55.04917328 34.83076893 53.3125 42.25 C51.57374489 49.8433245 49.88133942 57.4392272 48.375 65.08203125 C48.1773127 66.08467514 48.1773127 66.08467514 47.97563171 67.10757446 C47.33996645 70.34463996 46.71290143 73.5831028 46.09301758 76.82324219 C42.1805969 96.91456849 42.1805969 96.91456849 38 100 C34.82991028 100.36076355 34.82991028 100.36076355 30.86645508 100.34057617 C29.78315163 100.34123329 29.78315163 100.34123329 28.67796326 100.34190369 C26.29154395 100.33981414 23.90582777 100.31647613 21.51953125 100.29296875 C19.86472457 100.28737336 18.20991292 100.283103 16.55509949 100.28010559 C12.20006586 100.26865224 7.84533249 100.23918098 3.49041748 100.20599365 C-0.95361265 100.17530326 -5.39769131 100.16160247 -9.84179688 100.14648438 C-18.56133569 100.11431162 -27.28063049 100.06310952 -36 100 C-36.19938151 98.01432292 -36.39876302 96.02864583 -36.59814453 94.04296875 C-36.92987945 91.71573411 -36.92987945 91.71573411 -38.875 89 C-43.54228549 86.01293729 -47.61575696 85.94426607 -53 87 C-58.99928837 89.83022906 -62.19048021 94.14683377 -65 100 C-66.95803507 100.05389087 -68.91648909 100.09274217 -70.875 100.125 C-72.51082031 100.15980469 -72.51082031 100.15980469 -74.1796875 100.1953125 C-77 100 -77 100 -79 98 C-78.9765625 95.8359375 -78.9765625 95.8359375 -78.625 93.375 C-78.51414063 92.55773437 -78.40328125 91.74046875 -78.2890625 90.8984375 C-78.19367188 90.27195312 -78.09828125 89.64546875 -78 89 C-78.93294388 89.00666183 -78.93294388 89.00666183 -79.88473511 89.01345825 C-86.34061391 89.0576024 -92.79645005 89.08782918 -99.25244141 89.10986328 C-101.66391744 89.11993954 -104.07538122 89.13360081 -106.48681641 89.15087891 C-109.94697085 89.1750559 -113.4069642 89.18646669 -116.8671875 89.1953125 C-117.95055389 89.20563507 -119.03392029 89.21595764 -120.15011597 89.22659302 C-121.1510025 89.22674408 -122.15188904 89.22689514 -123.18310547 89.22705078 C-124.06690887 89.231492 -124.95071228 89.23593323 -125.86129761 89.24050903 C-128 89 -128 89 -130 87 C-130.25 84.5 -130.25 84.5 -130 82 C-127.2048965 79.2048965 -125.44772594 79.72451357 -121.53076172 79.68115234 C-120.86722687 79.67110672 -120.20369202 79.6610611 -119.52005005 79.65071106 C-117.32327148 79.61978012 -115.12661531 79.60281688 -112.9296875 79.5859375 C-111.40795837 79.56723377 -109.88623969 79.54766096 -108.36453247 79.5272522 C-104.35656895 79.47584076 -100.34857177 79.43626351 -96.3404541 79.39910889 C-92.25162366 79.35912552 -88.16293432 79.30800741 -84.07421875 79.2578125 C-76.04957541 79.16094661 -68.02486247 79.07657621 -60 79 C-60.57452746 75.06924356 -60.57452746 75.06924356 -63 72 C-65.75795887 71.7908041 -68.42367541 71.69888647 -71.18359375 71.69140625 C-72.84961291 71.66624861 -74.51562845 71.64085055 -76.18164062 71.61523438 C-78.8128976 71.58646538 -81.44409181 71.56245302 -84.07543945 71.54370117 C-86.61182179 71.52207955 -89.14746575 71.482645 -91.68359375 71.44140625 C-92.86495155 71.44123253 -92.86495155 71.44123253 -94.07017517 71.4410553 C-99.49109231 71.34255402 -99.49109231 71.34255402 -102.03149414 69.63256836 C-103 68 -103 68 -102.8125 65.4375 C-102 63 -102 63 -100 61 C-97.11083984 60.77294922 -97.11083984 60.77294922 -93.4609375 60.8046875 C-91.50800781 60.81435547 -91.50800781 60.81435547 -89.515625 60.82421875 C-88.13541405 60.84093071 -86.75520571 60.85786061 -85.375 60.875 C-83.98698548 60.88502994 -82.59896411 60.89415577 -81.2109375 60.90234375 C-77.80711974 60.92598137 -74.40364494 60.95893133 -71 61 C-71.99 58.03 -72.98 55.06 -74 52 C-75.25659424 52.01571045 -76.51318848 52.0314209 -77.80786133 52.04760742 C-82.46502282 52.10186183 -87.12215631 52.13633376 -91.77954102 52.16479492 C-93.79619034 52.17989179 -95.81280679 52.20037115 -97.8293457 52.22631836 C-100.72615671 52.26266211 -103.62253406 52.2797172 -106.51953125 52.29296875 C-107.87435356 52.31619453 -107.87435356 52.31619453 -109.25654602 52.33988953 C-110.5175135 52.34022942 -110.5175135 52.34022942 -111.80395508 52.34057617 C-112.54341873 52.34723801 -113.28288239 52.35389984 -114.04475403 52.36076355 C-116.56969856 51.89488459 -117.47693453 51.03592885 -119 49 C-118.75546876 45.65807308 -118.39456443 44.39456443 -116 42 C-112.98691049 41.82453518 -110.06689546 41.76872555 -107.0546875 41.8046875 C-105.72716965 41.80893234 -105.72716965 41.80893234 -104.37283325 41.81326294 C-101.54008588 41.8244776 -98.70765216 41.8495843 -95.875 41.875 C-93.95703581 41.88502815 -92.03906667 41.89415428 -90.12109375 41.90234375 C-85.41394124 41.92442111 -80.70702384 41.95895955 -76 42 C-76 39.03 -76 36.06 -76 33 C-76.74685059 33.01571045 -77.49370117 33.0314209 -78.26318359 33.04760742 C-81.63371261 33.10981077 -85.00412112 33.1489442 -88.375 33.1875 C-89.550625 33.21263672 -90.72625 33.23777344 -91.9375 33.26367188 C-93.05898437 33.27333984 -94.18046875 33.28300781 -95.3359375 33.29296875 C-96.37282715 33.3086792 -97.4097168 33.32438965 -98.47802734 33.34057617 C-99.31027832 33.22818604 -100.1425293 33.1157959 -101 33 C-103 30 -103 30 -102.6875 27.375 C-102 25 -102 25 -101 24 C-99.00217874 23.84174742 -96.99911166 23.74880829 -94.99609375 23.68359375 C-93.78115234 23.64169922 -92.56621094 23.59980469 -91.31445312 23.55664062 C-90.03505859 23.51732422 -88.75566406 23.47800781 -87.4375 23.4375 C-86.15423828 23.39431641 -84.87097656 23.35113281 -83.54882812 23.30664062 C-80.36600147 23.200152 -77.18309326 23.09814038 -74 23 C-73.61473145 22.1953833 -73.22946289 21.3907666 -72.83251953 20.56176758 C-65.96969252 6.48605619 -57.2253352 -2.50107579 -42.25 -7.9375 C-27.09200424 -11.8366629 -13.04373974 -8.03705176 0 0 Z " fill="#2248A9" transform="translate(141,21)"/>
<path d="M0 0 C-4.625 4.875 -4.625 4.875 -8 6 C-9.84617291 5.02656337 -11.69104791 4.05053674 -13.52734375 3.05859375 C-18.12137755 1.09179571 -23.0722758 0.6241784 -28 0 C-28 1.65 -28 3.3 -28 5 C-28.99 5 -29.98 5 -31 5 C-31 3.35 -31 1.7 -31 0 C-42.27977279 1.88295094 -51.45483517 5.33647956 -58.9375 14.3125 C-63.61921956 20.90283425 -66.30111543 27.96282749 -67 36 C-65.35 36 -63.7 36 -62 36 C-62 37.32 -62 38.64 -62 40 C-63.65 40 -65.3 40 -67 40 C-65.38608561 47.7546618 -63.38959145 54.36919721 -59 61 C-57.9790625 62.546875 -57.9790625 62.546875 -56.9375 64.125 C-50.2715702 71.60588674 -40.71577281 75.06284869 -31 76 C-31 74.02 -31 72.04 -31 70 C-29.68 70 -28.36 70 -27 70 C-27 71.98 -27 73.96 -27 76 C-16.29904924 74.79950649 -6.88060383 71.04260993 0.5078125 62.96484375 C5.95885897 55.78715691 8.16072416 47.70291494 10 39 C8.02 39 6.04 39 4 39 C4 38.34 4 37.68 4 37 C5.98 37 7.96 37 10 37 C8.17307711 28.48549776 8.17307711 28.48549776 4.6875 20.5625 C3 17 3 17 3.625 14.1875 C4.72282777 12.44095583 5.85569741 10.71645389 7 9 C10 10 10 10 11.75390625 12.9140625 C12.36717318 14.14591754 12.9696452 15.38319231 13.5625 16.625 C13.86607422 17.22957031 14.16964844 17.83414063 14.48242188 18.45703125 C20.01699818 29.76734188 20.89774129 41.43612473 16.875 53.375 C14.56088542 59.13111693 11.91226378 64.18203315 8 69 C7.44957031 69.68578125 6.89914063 70.3715625 6.33203125 71.078125 C-1.32198099 79.62972929 -13.38142924 85.3196292 -24.76171875 86.3359375 C-38.50774728 86.4727139 -48.7787926 83.29560958 -60 75 C-60.37116943 74.47865479 -60.74233887 73.95730957 -61.12475586 73.42016602 C-64.16526624 71.11751677 -67.61533676 71.57963078 -71.28125 71.59375 C-72.0911438 71.58291382 -72.9010376 71.57207764 -73.73547363 71.56091309 C-76.32373052 71.52662576 -78.91154573 71.5110515 -81.5 71.5 C-84.90667649 71.48545507 -88.31236312 71.45182663 -91.71875 71.40625 C-92.50318481 71.40927124 -93.28761963 71.41229248 -94.0958252 71.41540527 C-99.49353513 71.34073046 -99.49353513 71.34073046 -102.02929688 69.63476562 C-103 68 -103 68 -102.8125 65.4375 C-102 63 -102 63 -100 61 C-97.11083984 60.77294922 -97.11083984 60.77294922 -93.4609375 60.8046875 C-91.50800781 60.81435547 -91.50800781 60.81435547 -89.515625 60.82421875 C-88.13541405 60.84093071 -86.75520571 60.85786061 -85.375 60.875 C-83.98698548 60.88502994 -82.59896411 60.89415577 -81.2109375 60.90234375 C-77.80711974 60.92598137 -74.40364494 60.95893133 -71 61 C-71.99 58.03 -72.98 55.06 -74 52 C-75.25659424 52.01571045 -76.51318848 52.0314209 -77.80786133 52.04760742 C-82.46502282 52.10186183 -87.12215631 52.13633376 -91.77954102 52.16479492 C-93.79619034 52.17989179 -95.81280679 52.20037115 -97.8293457 52.22631836 C-100.72615671 52.26266211 -103.62253406 52.2797172 -106.51953125 52.29296875 C-107.42274612 52.30845261 -108.325961 52.32393646 -109.25654602 52.33988953 C-110.5175135 52.34022942 -110.5175135 52.34022942 -111.80395508 52.34057617 C-112.54341873 52.34723801 -113.28288239 52.35389984 -114.04475403 52.36076355 C-116.56969856 51.89488459 -117.47693453 51.03592885 -119 49 C-118.75546876 45.65807308 -118.39456443 44.39456443 -116 42 C-112.98691049 41.82453518 -110.06689546 41.76872555 -107.0546875 41.8046875 C-105.72716965 41.80893234 -105.72716965 41.80893234 -104.37283325 41.81326294 C-101.54008588 41.8244776 -98.70765216 41.8495843 -95.875 41.875 C-93.95703581 41.88502815 -92.03906667 41.89415428 -90.12109375 41.90234375 C-85.41394124 41.92442111 -80.70702384 41.95895955 -76 42 C-76 39.03 -76 36.06 -76 33 C-76.74685059 33.01571045 -77.49370117 33.0314209 -78.26318359 33.04760742 C-81.63371261 33.10981077 -85.00412112 33.1489442 -88.375 33.1875 C-89.550625 33.21263672 -90.72625 33.23777344 -91.9375 33.26367188 C-93.05898437 33.27333984 -94.18046875 33.28300781 -95.3359375 33.29296875 C-96.37282715 33.3086792 -97.4097168 33.32438965 -98.47802734 33.34057617 C-99.31027832 33.22818604 -100.1425293 33.1157959 -101 33 C-103 30 -103 30 -102.6875 27.375 C-102 25 -102 25 -101 24 C-99.00217874 23.84174742 -96.99911166 23.74880829 -94.99609375 23.68359375 C-93.78115234 23.64169922 -92.56621094 23.59980469 -91.31445312 23.55664062 C-90.03505859 23.51732422 -88.75566406 23.47800781 -87.4375 23.4375 C-86.15423828 23.39431641 -84.87097656 23.35113281 -83.54882812 23.30664062 C-80.36600147 23.200152 -77.18309326 23.09814038 -74 23 C-73.61473145 22.1953833 -73.22946289 21.3907666 -72.83251953 20.56176758 C-65.96969252 6.48605619 -57.2253352 -2.50107579 -42.25 -7.9375 C-27.09200424 -11.8366629 -13.04373974 -8.03705176 0 0 Z " fill="#FC8320" transform="translate(141,21)"/>
<path d="M0 0 C1.69382813 -0.11891602 1.69382813 -0.11891602 3.421875 -0.24023438 C11.62416693 -0.44673236 11.62416693 -0.44673236 15.05664062 2.66577148 C16.89017686 5.25771138 18.39898781 7.87825884 19.875 10.6875 C20.78656655 12.15100265 21.70772458 13.60859706 22.640625 15.05859375 C23.899965 17.10991 25.15018757 19.16652858 26.3984375 21.22460938 C26.80835938 21.89169922 27.21828125 22.55878906 27.640625 23.24609375 C27.99930664 23.83704834 28.35798828 24.42800293 28.72753906 25.03686523 C29.83822968 26.7621196 29.83822968 26.7621196 31.49609375 28.18066406 C33.51436444 30.38618224 33.20075322 32.5040694 33.08789062 35.37353516 C32.69939347 39.59621405 31.9554885 43.71945867 31.125 47.875 C30.88910156 49.18887695 30.88910156 49.18887695 30.6484375 50.52929688 C29.67379831 55.47371646 28.76585447 59.1913699 24.875 62.6875 C22.515625 63.39453125 22.515625 63.39453125 20.125 63.5 C19.32578125 63.54769531 18.5265625 63.59539062 17.703125 63.64453125 C17.09984375 63.65871094 16.4965625 63.67289063 15.875 63.6875 C15.14257812 60.70898438 15.14257812 60.70898438 14.41015625 57.73046875 C13.96489295 56.03066798 13.43066015 54.35448046 12.875 52.6875 C8.49248434 51.02214405 3.47406397 51.163556 -1.125 51.6875 C-5.54984878 53.89992439 -8.31976657 56.63549616 -11.125 60.6875 C-11.455 61.6775 -11.785 62.6675 -12.125 63.6875 C-14.10409398 63.71436553 -16.08328971 63.73383375 -18.0625 63.75 C-19.16464844 63.76160156 -20.26679688 63.77320313 -21.40234375 63.78515625 C-24.125 63.6875 -24.125 63.6875 -25.125 62.6875 C-24.98717867 55.21480069 -23.24770793 47.85692439 -21.65625 40.58984375 C-21.41588013 39.47436661 -21.17551025 38.35888947 -20.92785645 37.20960999 C-20.42282449 34.87199283 -19.91509528 32.53495692 -19.40478516 30.19848633 C-18.62081706 26.60583102 -17.84692039 23.0111091 -17.07421875 19.41601562 C-16.58131956 17.14049703 -16.08785062 14.86510177 -15.59375 12.58984375 C-15.36143677 11.51081284 -15.12912354 10.43178192 -14.88977051 9.3200531 C-14.67284546 8.3313472 -14.45592041 7.3426413 -14.23242188 6.32397461 C-14.04224487 5.45034775 -13.85206787 4.57672089 -13.65612793 3.67662048 C-12.25126477 -1.58471474 -4.48382719 0.1429408 0 0 Z " fill="#2449A9" transform="translate(210.125,56.3125)"/>
<path d="M0 0 C0.66 0.33 1.32 0.66 2 1 C1.21238281 1.94617188 0.42476562 2.89234375 -0.38671875 3.8671875 C-13.53948575 19.78552312 -25.19969942 36.40496437 -36 54 C-40.13431111 50.56517162 -44.00287045 47.10723561 -47.5625 43.0625 C-48.3153125 42.21042969 -49.068125 41.35835937 -49.84375 40.48046875 C-52.57909026 37.33383638 -55.30373062 34.18021516 -58 31 C-56.63016497 27.83884224 -56.0109362 27.0072908 -53 25 C-46.565 29.95 -46.565 29.95 -40 35 C-35.28166379 31.15949378 -31.00629161 27.02239234 -26.75 22.6875 C-21.15491862 17.01684201 -15.29631571 11.89080331 -9 7 C-8.11441406 6.30519531 -7.22882813 5.61039063 -6.31640625 4.89453125 C-4.21759146 3.25411594 -2.11275849 1.62238985 0 0 Z " fill="#FF841F" transform="translate(149,20)"/>
<path d="M0 0 C1.05960938 0.00676758 1.05960938 0.00676758 2.140625 0.01367188 C3.88545275 0.02546125 5.630237 0.04339676 7.375 0.0625 C8.72088326 2.61907735 10.05175328 5.18173905 11.375 7.75 C11.7565625 8.47123047 12.138125 9.19246094 12.53125 9.93554688 C16.11033025 16.93392701 16.11033025 16.93392701 15.375 21.0625 C13.375 23.0625 13.375 23.0625 10.77709961 23.30541992 C9.70468018 23.30131104 8.63226074 23.29720215 7.52734375 23.29296875 C6.36525391 23.29103516 5.20316406 23.28910156 4.00585938 23.28710938 C2.78705078 23.27486328 1.56824219 23.26261719 0.3125 23.25 C-1.52151367 23.2490332 -1.52151367 23.2490332 -3.39257812 23.24804688 C-12.48488944 23.20261056 -12.48488944 23.20261056 -13.625 22.0625 C-13.5667378 14.98364246 -12.13287457 7.67416931 -9.625 1.0625 C-6.55966836 -0.47016582 -3.35745728 -0.04026471 0 0 Z " fill="#FB801B" transform="translate(211.625,61.9375)"/>
<path d="M0 0 C3.03342634 1.65920188 3.38221349 2.70664888 5 6 C5.53318548 10.14532933 4.92050158 13.47641117 2.75390625 17.0625 C-0.60299382 21.24772606 -3.52628637 23.48957677 -8.9140625 24.28125 C-12.80281063 24.57254199 -14.62150755 24.23655778 -18 22.125 C-20.40081917 18.37372004 -20.83040745 15.97790588 -20.6328125 11.578125 C-19.51023878 7.00467653 -16.48871446 4.02302633 -13 1 C-9.00753352 -0.99623324 -4.33098317 -0.63562631 0 0 Z " fill="#284DAC" transform="translate(219,110)"/>
<path d="M0 0 C3.1875 2.0625 3.1875 2.0625 5 5 C5.75631605 10.19967286 4.85330353 13.62493459 2 18 C-1.94407096 21.99795171 -5.21950929 23.82769445 -10.875 24.375 C-14.20062271 24.30750581 -15.04589277 23.97036092 -18 22.0625 C-20.69695454 17.93278836 -20.91650143 14.80314638 -20 10 C-15.48223375 1.13179217 -9.69774046 -1.65748488 0 0 Z " fill="#264CAB" transform="translate(98,110)"/>
<path d="M0 0 C1.68216214 0.00031737 3.36434441 0.01165683 5.04638672 0.03173828 C6.37390457 0.03598312 6.37390457 0.03598312 7.72824097 0.04031372 C10.56098834 0.05152838 13.39342206 0.07663508 16.22607422 0.10205078 C18.14403841 0.11207893 20.06200755 0.12120507 21.97998047 0.12939453 C26.68713298 0.15147189 31.39405038 0.18601033 36.10107422 0.22705078 C36.76107422 3.52705078 37.42107422 6.82705078 38.10107422 10.22705078 C32.17458848 10.3011461 26.24837169 10.35562694 20.3215332 10.3918457 C18.30488387 10.40694257 16.28826743 10.42742193 14.27172852 10.45336914 C11.37491751 10.48971289 8.47854016 10.50676798 5.58154297 10.52001953 C4.67832809 10.53550339 3.77511322 10.55098724 2.8445282 10.56694031 C1.58356071 10.5672802 1.58356071 10.5672802 0.29711914 10.56762695 C-0.44234451 10.57428879 -1.18180817 10.58095062 -1.94367981 10.58781433 C-4.46862434 10.12193537 -5.37586031 9.26297963 -6.89892578 7.22705078 C-6.51798912 2.02091636 -5.38849286 0.31379451 0 0 Z " fill="#2C50AC" transform="translate(28.89892578125,62.77294921875)"/>
<path d="M0 0 C1.40092765 -0.02802503 2.80160777 -0.07570199 4.20117188 -0.14355469 C15.82729142 -0.7053556 15.82729142 -0.7053556 19.65234375 2.66235352 C23.36132812 8.15936473 23.36132812 8.15936473 23.36132812 10.64526367 C18.28933924 10.71939888 13.21766544 10.77385818 8.14526367 10.81005859 C6.41962185 10.82514883 4.69401841 10.84562343 2.96850586 10.87158203 C0.48867325 10.90795576 -1.99065251 10.92498726 -4.47070312 10.93823242 C-5.62866142 10.96145821 -5.62866142 10.96145821 -6.81001282 10.9851532 C-12.13010399 10.98682629 -12.13010399 10.98682629 -14.66088867 9.28710938 C-15.63867188 7.64526367 -15.63867188 7.64526367 -15.45117188 5.08276367 C-13.22210246 -1.60444456 -5.91496661 0.08491374 0 0 Z " fill="#2C50AC" transform="translate(53.638671875,81.354736328125)"/>
<path d="M0 0 C1.65 0 3.3 0 5 0 C5.66 3.63 6.32 7.26 7 11 C7.99 11 8.98 11 10 11 C10.33 11.33 10.66 11.66 11 12 C11.33 8.04 11.66 4.08 12 0 C13.65 0 15.3 0 17 0 C17 6.6 17 13.2 17 20 C15.02 20 13.04 20 11 20 C10.67 19.01 10.34 18.02 10 17 C9.443125 17.495 8.88625 17.99 8.3125 18.5 C5.60483847 20.25632099 4.16620913 20.34229288 1 20 C0 19 0 19 -0.11352539 17.14233398 C-0.10828857 16.35157471 -0.10305176 15.56081543 -0.09765625 14.74609375 C-0.09443359 13.89208984 -0.09121094 13.03808594 -0.08789062 12.15820312 C-0.07951172 11.26037109 -0.07113281 10.36253906 -0.0625 9.4375 C-0.05798828 8.53580078 -0.05347656 7.63410156 -0.04882812 6.70507812 C-0.03700225 4.46998686 -0.0205222 2.23502563 0 0 Z " fill="#274DAB" transform="translate(122,149)"/>
<path d="M0 0 C1.12591553 0.00523682 2.25183105 0.01047363 3.41186523 0.01586914 C4.62680664 0.0190918 5.84174805 0.02231445 7.09350586 0.02563477 C8.37290039 0.03401367 9.65229492 0.04239258 10.97045898 0.05102539 C12.2537207 0.05553711 13.53698242 0.06004883 14.85913086 0.06469727 C18.04211921 0.07652994 21.22501661 0.09301471 24.40795898 0.11352539 C23.74795898 3.08352539 23.08795898 6.05352539 22.40795898 9.11352539 C18.2830906 9.20029447 14.15845514 9.25383834 10.03295898 9.30102539 C8.85733398 9.32616211 7.68170898 9.35129883 6.47045898 9.37719727 C5.34897461 9.38686523 4.22749023 9.3965332 3.07202148 9.40649414 C2.03513184 9.42220459 0.99824219 9.43791504 -0.07006836 9.45410156 C-0.90231934 9.34171143 -1.73457031 9.22932129 -2.59204102 9.11352539 C-4.59204102 6.11352539 -4.59204102 6.11352539 -4.27954102 3.48852539 C-3.31169126 0.1450444 -3.31169126 0.1450444 0 0 Z " fill="#2348A9" transform="translate(42.592041015625,44.886474609375)"/>
<path d="M0 0 C1.98 0 3.96 0 6 0 C6 2.31 6 4.62 6 7 C6.99 7 7.98 7 9 7 C9 4.69 9 2.38 9 0 C10.65 0 12.3 0 14 0 C14 6.6 14 13.2 14 20 C12.02 20 10.04 20 8 20 C8 17.36 8 14.72 8 12 C7.01 12 6.02 12 5 12 C5 14.64 5 17.28 5 20 C3.35 20 1.7 20 0 20 C0 13.4 0 6.8 0 0 Z " fill="#2C51AD" transform="translate(76,149)"/>
<path d="M0 0 C2.31 0 4.62 0 7 0 C7 0.99 7 1.98 7 3 C7.99 3 8.98 3 10 3 C10 3.66 10 4.32 10 5 C10.66 5 11.32 5 12 5 C12 4.34 12 3.68 12 3 C17.28 3 22.56 3 28 3 C28.495 4.485 28.495 4.485 29 6 C27.68 5.67 26.36 5.34 25 5 C25 6.65 25 8.3 25 10 C21.7 10 18.4 10 15 10 C14.67 9.01 14.34 8.02 14 7 C13.67 7.99 13.34 8.98 13 10 C11.68 10 10.36 10 9 10 C8.67 9.01 8.34 8.02 8 7 C7.67 7.99 7.34 8.98 7 10 C2.38 10 -2.24 10 -7 10 C-7 7.69 -7 5.38 -7 3 C-4.69 3 -2.38 3 0 3 C0 2.01 0 1.02 0 0 Z " fill="#6A84C5" transform="translate(153,177)"/>
<path d="M0 0 C1.79244141 0.01740234 1.79244141 0.01740234 3.62109375 0.03515625 C5.41740234 0.04869141 5.41740234 0.04869141 7.25 0.0625 C8.17683594 0.07410156 9.10367188 0.08570313 10.05859375 0.09765625 C10.05859375 2.07765625 10.05859375 4.05765625 10.05859375 6.09765625 C7.08859375 5.76765625 4.11859375 5.43765625 1.05859375 5.09765625 C1.05859375 6.08765625 1.05859375 7.07765625 1.05859375 8.09765625 C3.69859375 8.09765625 6.33859375 8.09765625 9.05859375 8.09765625 C10.24842435 10.47731745 10.19209341 12.0125136 10.18359375 14.66015625 C10.18617187 15.46582031 10.18875 16.27148438 10.19140625 17.1015625 C10.05859375 19.09765625 10.05859375 19.09765625 9.05859375 20.09765625 C6.87219922 20.17024571 4.68358986 20.18139408 2.49609375 20.16015625 C0.69978516 20.14662109 0.69978516 20.14662109 -1.1328125 20.1328125 C-2.05964844 20.12121094 -2.98648438 20.10960937 -3.94140625 20.09765625 C-3.94140625 17.78765625 -3.94140625 15.47765625 -3.94140625 13.09765625 C-2.29140625 13.09765625 -0.64140625 13.09765625 1.05859375 13.09765625 C1.05859375 13.75765625 1.05859375 14.41765625 1.05859375 15.09765625 C2.37859375 15.09765625 3.69859375 15.09765625 5.05859375 15.09765625 C5.05859375 14.10765625 5.05859375 13.11765625 5.05859375 12.09765625 C2.08859375 11.76765625 -0.88140625 11.43765625 -3.94140625 11.09765625 C-3.96828776 9.45191059 -3.98774748 7.80604212 -4.00390625 6.16015625 C-4.01550781 5.24363281 -4.02710937 4.32710937 -4.0390625 3.3828125 C-3.89090453 -0.08408389 -3.52446843 0.11701422 0 0 Z " fill="#2A4FAD" transform="translate(110.94140625,148.90234375)"/>
<path d="M0 0 C1.65 0 3.3 0 5 0 C5 4.95 5 9.9 5 15 C0.38 15 -4.24 15 -9 15 C-9 10.38 -9 5.76 -9 1 C-7.35 1 -5.7 1 -4 1 C-4 4.3 -4 7.6 -4 11 C-3.01 11 -2.02 11 -1 11 C-1.01160156 10.28972656 -1.02320312 9.57945312 -1.03515625 8.84765625 C-1.04869141 7.46900391 -1.04869141 7.46900391 -1.0625 6.0625 C-1.07410156 5.14597656 -1.08570312 4.22945312 -1.09765625 3.28515625 C-1 1 -1 1 0 0 Z " fill="#3054AF" transform="translate(101,154)"/>
<path d="M0 0 C3.96 0 7.92 0 12 0 C12 1.65 12 3.3 12 5 C10.02 5 8.04 5 6 5 C6 5.66 6 6.32 6 7 C7.32 7 8.64 7 10 7 C10 8.65 10 10.3 10 12 C8.68 12 7.36 12 6 12 C6 14.64 6 17.28 6 20 C4.02 20 2.04 20 0 20 C0 13.4 0 6.8 0 0 Z " fill="#385AB2" transform="translate(147,149)"/>
<path d="M0 0 C4.62 0 9.24 0 14 0 C14 1.65 14 3.3 14 5 C12.68 5 11.36 5 10 5 C10 9.95 10 14.9 10 20 C8.02 20 6.04 20 4 20 C4 15.05 4 10.1 4 5 C2.68 5 1.36 5 0 5 C0 3.35 0 1.7 0 0 Z " fill="#2F54AF" transform="translate(160,149)"/>
<path d="M0 0 C1.1653125 0.00515625 2.330625 0.0103125 3.53125 0.015625 C4.6965625 0.01046875 5.861875 0.0053125 7.0625 0 C10.03125 0.265625 10.03125 0.265625 12.03125 2.265625 C12.34375 5.265625 12.34375 5.265625 12.03125 8.265625 C8.55739567 10.58152789 7.06694994 10.53554335 2.96875 10.515625 C1.90527344 10.52078125 0.84179688 10.5259375 -0.25390625 10.53125 C-2.96875 10.265625 -2.96875 10.265625 -4.96875 8.265625 C-5.21875 5.265625 -5.21875 5.265625 -4.96875 2.265625 C-2.96875 0.265625 -2.96875 0.265625 0 0 Z " fill="#2C51AD" transform="translate(11.96875,81.734375)"/>
<path d="M0 0 C1.26714844 -0.01417969 2.53429688 -0.02835938 3.83984375 -0.04296875 C7.0625 0.1875 7.0625 0.1875 9.0625 2.1875 C8.8125 5.25 8.8125 5.25 8.0625 8.1875 C5.21754507 9.60997747 2.7313204 9.39543601 -0.4375 9.4375 C-1.6028125 9.46328125 -2.768125 9.4890625 -3.96875 9.515625 C-5.43828125 9.35320313 -5.43828125 9.35320313 -6.9375 9.1875 C-8.9375 6.1875 -8.9375 6.1875 -8.625 3.5625 C-7.26394667 -1.13932058 -4.51402233 0.02291382 0 0 Z " fill="#254BAB" transform="translate(21.9375,44.8125)"/>
<path d="M0 0 C3.75822501 5.63733752 0.71052406 13.92239317 -0.56100464 20.31237793 C-0.76516998 21.31273071 -0.96933533 22.3130835 -1.1796875 23.34375 C-1.39311798 24.39405396 -1.60654846 25.44435791 -1.82644653 26.52648926 C-2.27630968 28.72875417 -2.72856551 30.93053155 -3.18310547 33.13183594 C-3.87811392 36.51515867 -4.55431489 39.90192825 -5.23046875 43.2890625 C-5.67071996 45.43252923 -6.11208619 47.57576731 -6.5546875 49.71875 C-6.75480438 50.73529663 -6.95492126 51.75184326 -7.16110229 52.79919434 C-7.35785553 53.73106567 -7.55460876 54.66293701 -7.75732422 55.62304688 C-8.00928055 56.85806946 -8.00928055 56.85806946 -8.2663269 58.11804199 C-8.62949509 59.04961121 -8.62949509 59.04961121 -9 60 C-10.485 60.495 -10.485 60.495 -12 61 C-11.38599913 56.49886313 -10.65979069 52.05134094 -9.765625 47.59765625 C-9.40235107 45.78322021 -9.40235107 45.78322021 -9.03173828 43.93212891 C-8.77376465 42.65515137 -8.51579102 41.37817383 -8.25 40.0625 C-7.98284018 38.73357526 -7.71575111 37.4046363 -7.44873047 36.07568359 C-5.0253907 24.03810753 -2.53081426 12.01542285 0 0 Z " fill="#E0E5F3" transform="translate(195,54)"/>
<path d="M0 0 C2 2 2 2 2.375 4.375 C1.87750076 7.85749465 0.77776513 8.89790747 -2 11 C-5.35228621 12.06292002 -6.61786861 12.12737713 -10 11 C-11.44755245 4.72727273 -11.44755245 4.72727273 -9.5 1.5625 C-6.14921964 -0.53173772 -3.88002054 -0.43111339 0 0 Z " fill="#F5F7FB" transform="translate(95,116)"/>
<path d="M0 0 C1.43735246 2.87470493 1.38172649 4.81894588 1 8 C-1.48814025 10.70140941 -3.03215561 11.86495195 -6.6875 12.375 C-9 12 -9 12 -11 10 C-11.46382725 6.44399109 -11.42769679 4.65009912 -9.4375 1.625 C-6.18317497 -0.54455002 -3.82869586 -0.29451507 0 0 Z " fill="#F7F9FC" transform="translate(216,116)"/>
<path d="M0 0 C0.99 0 1.98 0 3 0 C3 0.66 3 1.32 3 2 C3.66 2 4.32 2 5 2 C5 1.34 5 0.68 5 0 C5.99 0 6.98 0 8 0 C8 0.99 8 1.98 8 3 C10.31 3 12.62 3 15 3 C15 5.31 15 7.62 15 10 C11.7 10 8.4 10 5 10 C5 8.68 5 7.36 5 6 C4.34 6 3.68 6 3 6 C3 7.32 3 8.64 3 10 C2.01 10 1.02 10 0 10 C0 6.7 0 3.4 0 0 Z " fill="#3D5FB4" transform="translate(36,177)"/>
<path d="M0 0 C1.67542976 0.28604898 3.34385343 0.61781233 5 1 C5 1.66 5 2.32 5 3 C4.01 3 3.02 3 2 3 C2.33 3.66 2.66 4.32 3 5 C3.66 5 4.32 5 5 5 C5 5.99 5 6.98 5 8 C3.02 8 1.04 8 -1 8 C-1.33 7.01 -1.66 6.02 -2 5 C-2.66 5 -3.32 5 -4 5 C-4.33 5.99 -4.66 6.98 -5 8 C-8.3 8 -11.6 8 -15 8 C-15 5.69 -15 3.38 -15 1 C-14.00097656 1.01160156 -13.00195312 1.02320313 -11.97265625 1.03515625 C-10.68230469 1.04417969 -9.39195313 1.05320313 -8.0625 1.0625 C-6.13083984 1.07990234 -6.13083984 1.07990234 -4.16015625 1.09765625 C-1.13701597 1.36532549 -1.13701597 1.36532549 0 0 Z " fill="#4F6EBB" transform="translate(112,179)"/>
<path d="M0 0 C4.62 0 9.24 0 14 0 C14 3.3 14 6.6 14 10 C11.69 10 9.38 10 7 10 C7 9.01 7 8.02 7 7 C4.69 7 2.38 7 0 7 C0 4.69 0 2.38 0 0 Z " fill="#8298CF" transform="translate(63,180)"/>
<path d="M0 0 C0.66 0 1.32 0 2 0 C2 0.66 2 1.32 2 2 C2.66 2 3.32 2 4 2 C4 1.34 4 0.68 4 0 C9.28 0 14.56 0 20 0 C20.33 0.99 20.66 1.98 21 3 C19.68 2.67 18.36 2.34 17 2 C17 3.65 17 5.3 17 7 C13.7 7 10.4 7 7 7 C6.67 6.01 6.34 5.02 6 4 C5.67 4.99 5.34 5.98 5 7 C3.68 7 2.36 7 1 7 C0.67 4.69 0.34 2.38 0 0 Z " fill="#4D6CBA" transform="translate(161,180)"/>
<path d="M0 0 C4.62 0 9.24 0 14 0 C14 3.3 14 6.6 14 10 C11.69 10 9.38 10 7 10 C7 9.01 7 8.02 7 7 C6.01 7 5.02 7 4 7 C4 5.35 4 3.7 4 2 C3.34 2 2.68 2 2 2 C2 3.65 2 5.3 2 7 C1.34 7 0.68 7 0 7 C0 4.69 0 2.38 0 0 Z " fill="#516FBB" transform="translate(186,180)"/>
<path d="M0 0 C1.65 0 3.3 0 5 0 C5 6.6 5 13.2 5 20 C3.35 20 1.7 20 0 20 C0 13.4 0 6.8 0 0 Z " fill="#254BAB" transform="translate(141,149)"/>
<path d="M0 0 C4.95 0 9.9 0 15 0 C15 2.31 15 4.62 15 7 C14.01 6.67 13.02 6.34 12 6 C11.01 6.495 11.01 6.495 10 7 C8.29297265 7.06996014 6.58331997 7.08440154 4.875 7.0625 C3.96492188 7.05347656 3.05484375 7.04445312 2.1171875 7.03515625 C1.41851562 7.02355469 0.71984375 7.01195312 0 7 C0 4.69 0 2.38 0 0 Z " fill="#3559B1" transform="translate(81,180)"/>
<path d="M0 0 C1.29550781 -0.02126953 1.29550781 -0.02126953 2.6171875 -0.04296875 C5.30032874 0.20361277 6.86065363 0.751934 9.125 2.1875 C10.9375 4.5625 10.9375 4.5625 12.125 7.1875 C11.8125 9.5 11.8125 9.5 11.125 11.1875 C11.125 10.5275 11.125 9.8675 11.125 9.1875 C10.465 9.1875 9.805 9.1875 9.125 9.1875 C8.650625 8.3625 8.17625 7.5375 7.6875 6.6875 C4.72275418 3.79506505 3.82472901 3.70335955 -0.1875 3.5 C-5.34262881 3.7139344 -8.01027753 5.09181794 -11.6328125 8.6796875 C-12.96635406 10.18391383 -12.96635406 10.18391383 -13.875 12.1875 C-14.535 12.1875 -15.195 12.1875 -15.875 12.1875 C-14.48491124 6.93605359 -11.0707125 4.31449328 -6.875 1.1875 C-4.42528376 -0.03735812 -2.73265539 0.02027192 0 0 Z " fill="#E8ECF6" transform="translate(213.875,106.8125)"/>
<path d="M0 0 C3.41311667 2.52570633 4.66637768 3.99913304 6 8 C2.31466555 7.36459751 2.31466555 7.36459751 0.6953125 5.48828125 C-2.25177514 2.90109141 -5.51332284 3.47888568 -9.26953125 3.578125 C-14.43317911 4.37594184 -16.65811197 7.34500476 -19.875 11.3125 C-20.431875 12.1478125 -20.431875 12.1478125 -21 13 C-21.33 12.34 -21.66 11.68 -22 11 C-16.8386024 2.12239612 -10.59933176 -2.07733817 0 0 Z " fill="#E5E9F4" transform="translate(99,107)"/>
<path d="M0 0 C4.29 0 8.58 0 13 0 C13 1.32 13 2.64 13 4 C12.34 4 11.68 4 11 4 C10.67 4.99 10.34 5.98 10 7 C6.7 7 3.4 7 0 7 C0 4.69 0 2.38 0 0 Z " fill="#5674BE" transform="translate(118,180)"/>
<path d="M0 0 C2.31 0 4.62 0 7 0 C7 2.31 7 4.62 7 7 C4.69 7 2.38 7 0 7 C0 4.69 0 2.38 0 0 Z " fill="#4C6BBA" transform="translate(44,180)"/>
<path d="M0 0 C0.66 0 1.32 0 2 0 C2 2.97 2 5.94 2 9 C0.02 9 -1.96 9 -4 9 C-4 6.69 -4 4.38 -4 2 C-2.68 2 -1.36 2 0 2 C0 1.34 0 0.68 0 0 Z " fill="#4C6BBA" transform="translate(143,178)"/>
<path d="M0 0 C1.98 0 3.96 0 6 0 C7.125 4.75 7.125 4.75 6 7 C4.02 7 2.04 7 0 7 C0 4.69 0 2.38 0 0 Z " fill="#395CB2" transform="translate(146,180)"/>
<path d="M0 0 C1.98 0 3.96 0 6 0 C6 2.31 6 4.62 6 7 C4.02 7 2.04 7 0 7 C0 4.69 0 2.38 0 0 Z " fill="#3C5EB4" transform="translate(232,180)"/>
<path d="M0 0 C0.99 0 1.98 0 3 0 C3 0.66 3 1.32 3 2 C3.66 2 4.32 2 5 2 C5 2.66 5 3.32 5 4 C4.34 4 3.68 4 3 4 C3.33 4.66 3.66 5.32 4 6 C4.66 6 5.32 6 6 6 C6 6.99 6 7.98 6 9 C4.02 9 2.04 9 0 9 C0 6.03 0 3.06 0 0 Z " fill="#3F61B5" transform="translate(225,178)"/>
<path d="M0 0 C1.98 0 3.96 0 6 0 C6 2.31 6 4.62 6 7 C4.02 7 2.04 7 0 7 C0 4.69 0 2.38 0 0 Z " fill="#3155AF" transform="translate(211,180)"/>
<path d="M0 0 C1.98 0 3.96 0 6 0 C6 2.31 6 4.62 6 7 C4.02 7 2.04 7 0 7 C0 4.69 0 2.38 0 0 Z " fill="#3256B0" transform="translate(97,180)"/>
<path d="M0 0 C0.33 0 0.66 0 1 0 C1 3.3 1 6.6 1 10 C-0.98 10 -2.96 10 -5 10 C-5 7.36 -5 4.72 -5 2 C-4.67 2.99 -4.34 3.98 -4 5 C-3.01 5 -2.02 5 -1 5 C-0.67 3.35 -0.34 1.7 0 0 Z " fill="#244AAA" transform="translate(76,180)"/>
<path d="M0 0 C1.98 0 3.96 0 6 0 C6 2.31 6 4.62 6 7 C4.02 7 2.04 7 0 7 C0 4.69 0 2.38 0 0 Z " fill="#385BB2" transform="translate(63,180)"/>
<path d="M0 0 C1.98 0 3.96 0 6 0 C5.67 1.32 5.34 2.64 5 4 C4.34 4 3.68 4 3 4 C3 5.65 3 7.3 3 9 C2.01 9 1.02 9 0 9 C0 6.03 0 3.06 0 0 Z " fill="#4868B8" transform="translate(204,178)"/>
<path d="M0 0 C2.31 0 4.62 0 7 0 C6.67 1.98 6.34 3.96 6 6 C4.68 6.33 3.36 6.66 2 7 C0.5393715 4.35261084 0 3.10551666 0 0 Z " fill="#3E5FB4" transform="translate(52,180)"/>
<path d="M0 0 C1.98 0 3.96 0 6 0 C6 2.31 6 4.62 6 7 C4.02 7 2.04 7 0 7 C0 4.69 0 2.38 0 0 Z " fill="#3054AF" transform="translate(81,180)"/>
<path d="M0 0 C1.98 0 3.96 0 6 0 C6 2.31 6 4.62 6 7 C4.02 7 2.04 7 0 7 C0 4.69 0 2.38 0 0 Z " fill="#2A4FAC" transform="translate(218,180)"/>
<path d="M0 0 C1.98 0 3.96 0 6 0 C6 2.31 6 4.62 6 7 C5.34 7 4.68 7 4 7 C4 5.35 4 3.7 4 2 C3.34 2 2.68 2 2 2 C2 3.65 2 5.3 2 7 C1.34 7 0.68 7 0 7 C0 4.69 0 2.38 0 0 Z " fill="#264CAB" transform="translate(186,180)"/>
<path d="M0 0 C1.67542976 0.28604898 3.34385343 0.61781233 5 1 C5 1.66 5 2.32 5 3 C4.01 3 3.02 3 2 3 C2.33 3.66 2.66 4.32 3 5 C3.66 5 4.32 5 5 5 C5 5.99 5 6.98 5 8 C3.35 8 1.7 8 0 8 C-0.38063221 5.6739143 -0.71269945 3.33944736 -1 1 C-0.67 0.67 -0.34 0.34 0 0 Z " fill="#2E53AE" transform="translate(112,179)"/>
<path d="M0 0 C1.98 0 3.96 0 6 0 C6 1.32 6 2.64 6 4 C5.34 4 4.68 4 4 4 C3.67 4.99 3.34 5.98 3 7 C2.01 7 1.02 7 0 7 C0 4.69 0 2.38 0 0 Z " fill="#3B5DB3" transform="translate(239,180)"/>
<path d="M0 0 C0.99 0.33 1.98 0.66 3 1 C2.67 1.66 2.34 2.32 2 3 C2.66 3 3.32 3 4 3 C4 2.34 4 1.68 4 1 C4.66 1 5.32 1 6 1 C6 2.98 6 4.96 6 7 C4.02 7 2.04 7 0 7 C0 4.69 0 2.38 0 0 Z " fill="#274DAC" transform="translate(118,180)"/>
<path d="M0 0 C4.95 0.99 4.95 0.99 10 2 C10 2.99 10 3.98 10 5 C8.68 5 7.36 5 6 5 C6 4.34 6 3.68 6 3 C4.35 3 2.7 3 1 3 C1 4.98 1 6.96 1 9 C0.67 9 0.34 9 0 9 C0 6.03 0 3.06 0 0 Z " fill="#EBEFF7" transform="translate(106,159)"/>
<path d="M0 0 C1.65 0 3.3 0 5 0 C5.33 0.99 5.66 1.98 6 3 C4.68 2.67 3.36 2.34 2 2 C2 3.65 2 5.3 2 7 C1.34 7 0.68 7 0 7 C0 4.69 0 2.38 0 0 Z " fill="#294EAC" transform="translate(176,180)"/>
<path d="M0 0 C0.66 0 1.32 0 2 0 C3.74627478 2.61941217 4.38722388 4.03824877 5 7 C3.68 7 2.36 7 1 7 C0.67 4.69 0.34 2.38 0 0 Z " fill="#2C50AD" transform="translate(161,180)"/>
<path d="M0 0 C0.66 0 1.32 0 2 0 C2 2.97 2 5.94 2 9 C1.01 8.34 0.02 7.68 -1 7 C-0.67 6.01 -0.34 5.02 0 4 C-0.66 3.67 -1.32 3.34 -2 3 C-1.34 3 -0.68 3 0 3 C0 2.01 0 1.02 0 0 Z " fill="#2047A9" transform="translate(143,178)"/>
<path d="M0 0 C-1.36944102 2.94956528 -2.87830409 5.52468811 -5 8 C-5.66 8 -6.32 8 -7 8 C-4.18918919 0 -4.18918919 0 0 0 Z " fill="#E0E6F3" transform="translate(205,111)"/>
<path d="M0 0 C1.32 0 2.64 0 4 0 C4 2.31 4 4.62 4 7 C3.566875 6.525625 3.13375 6.05125 2.6875 5.5625 C0.97690387 3.76313043 0.97690387 3.76313043 -2 3 C-1.34 2.67 -0.68 2.34 0 2 C0 1.34 0 0.68 0 0 Z " fill="#5D79C0" transform="translate(165,180)"/>
<path d="M0 0 C0.66 0 1.32 0 2 0 C1.67 2.31 1.34 4.62 1 7 C0.01 7.33 -0.98 7.66 -2 8 C-1.125 1.125 -1.125 1.125 0 0 Z " fill="#D4DCEE" transform="translate(185,107)"/>
<path d="M0 0 C2.375 -0.125 2.375 -0.125 5 0 C7 2 7 2 7.125 4.625 C7.08375 5.40875 7.0425 6.1925 7 7 C6.34 6.01 5.68 5.02 5 4 C4.34 4 3.68 4 3 4 C3 3.01 3 2.02 3 1 C2.01 0.67 1.02 0.34 0 0 Z " fill="#5B78C0" transform="translate(105,180)"/>
<path d="M0 0 C1.65 0 3.3 0 5 0 C4.67 1.65 4.34 3.3 4 5 C3.01 5 2.02 5 1 5 C0.67 3.35 0.34 1.7 0 0 Z " fill="#5A77BF" transform="translate(71,180)"/>
<path d="M0 0 C0.66 0 1.32 0 2 0 C2 2.31 2 4.62 2 7 C1.34 7 0.68 7 0 7 C0 5.68 0 4.36 0 3 C-0.99 2.67 -1.98 2.34 -3 2 C-2.01 2 -1.02 2 0 2 C0 1.34 0 0.68 0 0 Z " fill="#8197CE" transform="translate(87,180)"/>
<path d="M0 0 C2.1519437 3.22791555 2.20086443 4.28400809 2 8 C1.01 8.33 0.02 8.66 -1 9 C-0.67 6.03 -0.34 3.06 0 0 Z " fill="#CDD6EB" transform="translate(195,54)"/>
</svg>
